Coordinates
version=1
nRows=49
nColumns=12
inDegrees=yes

Units are S.I. units (second, meters, Newtons, ...)
Angles are in degrees

endheader
time	SC_y	SC_z	SC_x	AC_y	AC_z	AC_x	GH_y	GH_z	GH_yy	EL_x	PS_y
       0.0               -56.1          18.57          32.93          45.59         -13.73         -8.436         -66.78          64.62         -151.9          114.5          32.17
   0.01647              -56.09          18.57          32.93          45.59         -13.73         -8.433         -66.76          64.62         -151.9          114.5          32.18
   0.03293              -56.09          18.57          32.93          45.59         -13.73          -8.43         -66.74          64.63         -151.9          114.5           32.2
    0.0494              -56.08          18.56          32.92          45.59         -13.73         -8.427         -66.72          64.63         -151.8          114.5          32.22
   0.06587              -56.07          18.56          32.92          45.59         -13.73         -8.423         -66.69          64.63         -151.8          114.5          32.24
   0.08234              -56.06          18.55          32.92           45.6         -13.72          -8.42         -66.67          64.63         -151.8          114.5          32.27
    0.0988              -56.05          18.55          32.91           45.6         -13.72         -8.416         -66.64          64.63         -151.8          114.5          32.29
    0.1153              -56.05          18.55          32.91           45.6         -13.72         -8.411         -66.61          64.64         -151.8          114.4          32.32
    0.1317              -56.04          18.54          32.91           45.6         -13.72         -8.407         -66.58          64.64         -151.8          114.4          32.34
    0.1482              -56.03          18.54           32.9           45.6         -13.72         -8.402         -66.55          64.64         -151.8          114.4          32.37
    0.1647              -56.01          18.53           32.9           45.6         -13.72         -8.397         -66.51          64.64         -151.8          114.4           32.4
    0.1811               -56.0          18.52          32.89          45.61         -13.72         -8.391         -66.48          64.65         -151.8          114.4          32.44
    0.1976              -55.99          18.52          32.89          45.61         -13.72         -8.385         -66.44          64.65         -151.7          114.4          32.48
    0.2141              -55.98          18.51          32.88          45.61         -13.72         -8.379         -66.39          64.65         -151.7          114.4          32.52
    0.2305              -55.96           18.5          32.87          45.61         -13.72         -8.372         -66.34          64.66         -151.7          114.4          32.56
     0.247              -55.94           18.5          32.87          45.62         -13.72         -8.364         -66.29          64.66         -151.7          114.4           32.6
    0.2635              -55.93          18.49          32.86          45.62         -13.72         -8.356         -66.23          64.66         -151.7          114.4          32.66
    0.2799              -55.91          18.48          32.85          45.62         -13.71         -8.347         -66.17          64.67         -151.6          114.4          32.71
    0.2964              -55.89          18.47          32.84          45.63         -13.71         -8.337         -66.11          64.67         -151.6          114.4          32.77
    0.3129              -55.86          18.46          32.83          45.63         -13.71         -8.326         -66.03          64.68         -151.6          114.4          32.84
    0.3293              -55.84          18.44          32.82          45.64         -13.71         -8.314         -65.95          64.68         -151.6          114.4          32.91
    0.3458              -55.81          18.43          32.81          45.64         -13.71         -8.301         -65.86          64.69         -151.5          114.4          32.99
    0.3623              -55.78          18.41           32.8          45.65         -13.71         -8.286         -65.76           64.7         -151.5          114.4          33.08
    0.3787              -55.74           18.4          32.79          45.65          -13.7          -8.27         -65.65          64.71         -151.4          114.4          33.18
    0.3952              -55.71          18.38          32.77          45.66          -13.7         -8.253         -65.53          64.71         -151.4          114.4          33.28
    0.4117              -55.66          18.36          32.75          45.67          -13.7         -8.233          -65.4          64.72         -151.3          114.3          33.41
    0.4281              -55.62          18.33          32.73          45.68          -13.7          -8.21         -65.25          64.74         -151.3          114.3          33.54
    0.4446              -55.56          18.31          32.71          45.69         -13.69         -8.185         -65.08          64.75         -151.2          114.3          33.69
    0.4611               -55.5          18.28          32.69           45.7         -13.69         -8.157         -64.88          64.76         -151.1          114.3          33.87
    0.4775              -55.43          18.24          32.66          45.71         -13.68         -8.125         -64.66          64.78         -151.1          114.3          34.06
     0.494              -55.35           18.2          32.63          45.72         -13.68         -8.088         -64.41           64.8         -151.0          114.2          34.29
    0.5105              -55.26          18.16          32.59          45.74         -13.67         -8.046         -64.13          64.82         -150.9          114.2          34.54
    0.5269              -55.16          18.11          32.55          45.76         -13.67         -7.997          -63.8          64.84         -150.7          114.2          34.84
    0.5434              -55.04          18.05           32.5          45.78         -13.66         -7.941         -63.41          64.87         -150.6          114.2          35.18
    0.5599               -54.9          17.98          32.44          45.81         -13.65         -7.875         -62.96           64.9         -150.4          114.1          35.59
    0.5763              -54.73           17.9          32.37          45.84         -13.64         -7.797         -62.43          64.94         -150.2          114.1          36.06
    0.5928              -54.53           17.8          32.29          45.87         -13.62         -7.704          -61.8          64.99         -150.0          114.0          36.63
    0.6093               -54.3          17.68          32.19          45.92         -13.61         -7.593         -61.05          65.04         -149.7          113.9           37.3
    0.6258              -54.01          17.54          32.08          45.97         -13.59         -7.459         -60.14          65.11         -149.3          113.9          38.12
    0.6422              -53.66          17.36          31.93          46.03         -13.57         -7.295         -59.02          65.19         -148.9          113.8          39.12
    0.6587              -53.23          17.15          31.76          46.11         -13.54         -7.093         -57.64          65.29         -148.4          113.6          40.36
    0.6752              -52.69          16.88          31.54          46.21          -13.5          -6.84         -55.93          65.41         -147.7          113.5           41.9
    0.6916              -52.01          16.55          31.26          46.34         -13.46         -6.522         -53.76          65.57         -146.9          113.3          43.84
    0.7081              -51.14          16.12          30.91          46.49          -13.4         -6.118         -51.01          65.77         -145.8          113.0           46.3
    0.7246              -50.04          15.57          30.45          46.69         -13.33           -5.6         -47.49          66.03         -144.4          112.7          49.46
     0.741              -48.62          14.87          29.87          46.95         -13.23         -4.936         -42.97          66.36         -142.7          112.3          53.51
    0.7575               -46.8          13.97          29.13          47.28         -13.12         -4.088          -37.2          66.78         -140.5          111.8          58.68
     0.774              -44.52          12.84           28.2           47.7         -12.96         -3.022         -29.95          67.31         -137.7          111.1          65.19
    0.7904              -41.75          11.47          27.06          48.21         -12.78         -1.722         -21.11          67.95         -134.3          110.3          73.11
